<svg width="83" height="81" viewBox="0 0 83 81" fill="none" xmlns="http://www.w3.org/2000/svg">
<path d="M42.3999 0.607318C28.252 0.570209 15.8018 7.89003 8.68604 18.9486C8.37061 19.4403 8.72315 20.0897 9.30762 20.0897H15.8296C16.2749 20.0897 16.6924 19.8949 16.9707 19.5517C17.6201 18.7631 18.3159 18.0023 19.0488 17.2787C22.0732 14.2636 25.5894 11.8886 29.5044 10.2372C33.5493 8.53017 37.854 7.6581 42.2979 7.6581C46.7417 7.6581 51.0464 8.52089 55.0913 10.2372C59.0064 11.8886 62.5225 14.2636 65.5469 17.2787C68.5713 20.2938 70.937 23.81 72.5977 27.7157C74.314 31.7606 75.1768 36.0561 75.1768 40.4999C75.1768 44.9437 74.3047 49.2392 72.5977 53.2841C70.9463 57.1898 68.5713 60.706 65.5469 63.7211C62.5225 66.7362 59.0064 69.1112 55.0913 70.7626C51.0432 72.4724 46.6922 73.3495 42.2979 73.3417C37.854 73.3417 33.5493 72.4696 29.5044 70.7626C25.5971 69.1129 22.0464 66.7217 19.0488 63.7211C18.3159 62.9882 17.6294 62.2274 16.9707 61.4481C16.6924 61.1049 16.2656 60.9101 15.8296 60.9101H9.30762C8.72315 60.9101 8.36134 61.5595 8.68604 62.0512C15.7925 73.0819 28.187 80.3925 42.2979 80.3925C64.2109 80.3925 82.0049 62.7563 82.2275 40.9081C82.4502 18.7074 64.6284 0.662982 42.3999 0.607318ZM30.6474 50.8905V43.8397H1.51651C1.10831 43.8397 0.774323 43.5058 0.774323 43.0976V37.9022C0.774323 37.494 1.10831 37.1601 1.51651 37.1601H30.6474V30.1093C30.6474 29.4877 31.371 29.1352 31.8534 29.5248L45.018 39.9154C45.1067 39.9849 45.1784 40.0736 45.2278 40.1748C45.2771 40.2761 45.3027 40.3873 45.3027 40.4999C45.3027 40.6125 45.2771 40.7237 45.2278 40.825C45.1784 40.9262 45.1067 41.0149 45.018 41.0844L31.8534 51.475C31.371 51.8554 30.6474 51.5121 30.6474 50.8905Z" fill="white"/>
</svg>
